<svg width="56" height="56" viewBox="0 0 56 56" fill="none" xmlns="http://www.w3.org/2000/svg">
<rect width="56" height="56" fill="#EEEEEE"/>
<path fill-rule="evenodd" clip-rule="evenodd" d="M39.64 21.4933L39.4533 21.16C39.2125 20.7569 38.8729 20.4219 38.4667 20.1866L29.52 15.0266C29.1149 14.7916 28.6551 14.6675 28.1867 14.6666H27.8C27.3316 14.6675 26.8717 14.7916 26.4667 15.0266L17.52 20.2C17.116 20.4336 16.7803 20.7693 16.5467 21.1733L16.36 21.5066C16.125 21.9117 16.0008 22.3716 16 22.84V33.1733C16.0008 33.6417 16.125 34.1016 16.36 34.5066L16.5467 34.84C16.7864 35.2393 17.1207 35.5736 17.52 35.8133L26.48 40.9733C26.8831 41.2132 27.3443 41.3377 27.8133 41.3333H28.1867C28.6551 41.3325 29.1149 41.2084 29.52 40.9733L38.4667 35.8C38.8747 35.5716 39.2116 35.2346 39.44 34.8266L39.64 34.4933C39.8721 34.087 39.9961 33.628 40 33.16V22.8266C39.9992 22.3583 39.8751 21.8984 39.64 21.4933ZM27.8 17.3333H28.1867L36 21.84L28 26.4533L20 21.84L27.8 17.3333ZM29.3333 38L37.1333 33.4933L37.3333 33.16V24.1466L29.3333 28.7733V38Z" fill="black"/>
</svg>
